<?xml version="1.0" encoding="UTF-8" standalone="no"?>
<!DOCTYPE svg PUBLIC "-//W3C//DTD SVG 1.1//EN"
 "http://www.w3.org/Graphics/SVG/1.1/DTD/svg11.dtd">
<!-- Generated by graphviz version 2.43.0 (0)
 -->
<!-- Title: dag Pages: 1 -->
<svg width="620pt" height="870pt"
 viewBox="0.00 0.00 619.60 869.80" xmlns="http://www.w3.org/2000/svg" xmlns:xlink="http://www.w3.org/1999/xlink">
<g id="graph0" class="graph" transform="scale(1 1) rotate(0) translate(4 865.8)">
<title>dag</title>
<polygon fill="white" stroke="transparent" points="-4,4 -4,-865.8 615.6,-865.8 615.6,4 -4,4"/>
<!-- v0 -->
<g id="node1" class="node">
<title>v0</title>
<ellipse fill="black" stroke="black" cx="163.6" cy="-843.2" rx="3.6" ry="3.6"/>
<text text-anchor="middle" x="80" y="-850.6" font-family="Times,serif" font-size="14.00">Channel.fromFilePairs</text>
</g>
<!-- v1 -->
<g id="node2" class="node">
<title>v1</title>
<ellipse fill="none" stroke="black" cx="163.6" cy="-785.1" rx="3.5" ry="3.5"/>
<text text-anchor="middle" x="144.6" y="-792.4" font-family="Times,serif" font-size="14.00">map</text>
</g>
<!-- v0&#45;&gt;v1 -->
<g id="edge1" class="edge">
<title>v0&#45;&gt;v1</title>
<path fill="none" stroke="black" d="M163.6,-839.49C163.6,-832.26 163.6,-812.13 163.6,-798.76"/>
<polygon fill="black" stroke="black" points="167.1,-798.65 163.6,-788.65 160.1,-798.65 167.1,-798.65"/>
</g>
<!-- v4 -->
<g id="node3" class="node">
<title>v4</title>
<ellipse fill="none" stroke="black" cx="201.6" cy="-712.6" rx="83.69" ry="18"/>
<text text-anchor="middle" x="201.6" y="-708.9" font-family="Times,serif" font-size="14.00">TRIMMOMATIC</text>
</g>
<!-- v1&#45;&gt;v4 -->
<g id="edge2" class="edge">
<title>v1&#45;&gt;v4</title>
<path fill="none" stroke="black" d="M163,-781.36C161.79,-775.19 159.56,-759.86 164.6,-748.6 166.35,-744.7 168.75,-741.02 171.51,-737.62"/>
<polygon fill="black" stroke="black" points="174.15,-739.92 178.43,-730.22 169.04,-735.13 174.15,-739.92"/>
<text text-anchor="middle" x="195.1" y="-752.4" font-family="Times,serif" font-size="14.00">input_ch</text>
</g>
<!-- v5 -->
<g id="node6" class="node">
<title>v5</title>
<ellipse fill="none" stroke="black" cx="147.6" cy="-625.6" rx="48.99" ry="18"/>
<text text-anchor="middle" x="147.6" y="-621.9" font-family="Times,serif" font-size="14.00">FASTQC</text>
</g>
<!-- v4&#45;&gt;v5 -->
<g id="edge5" class="edge">
<title>v4&#45;&gt;v5</title>
<path fill="none" stroke="black" d="M167.48,-696.05C159.97,-690.96 152.96,-684.52 148.6,-676.6 144.86,-669.8 143.6,-661.66 143.56,-653.93"/>
<polygon fill="black" stroke="black" points="147.06,-654.01 144.13,-643.83 140.07,-653.62 147.06,-654.01"/>
<text text-anchor="middle" x="191.1" y="-665.4" font-family="Times,serif" font-size="14.00">trimmed_ch</text>
</g>
<!-- v13 -->
<g id="node15" class="node">
<title>v13</title>
<ellipse fill="none" stroke="black" cx="256.6" cy="-625.6" rx="3.5" ry="3.5"/>
<text text-anchor="middle" x="237.6" y="-632.9" font-family="Times,serif" font-size="14.00">map</text>
</g>
<!-- v4&#45;&gt;v13 -->
<g id="edge13" class="edge">
<title>v4&#45;&gt;v13</title>
<path fill="none" stroke="black" d="M219.02,-694.68C224.1,-689.21 229.41,-682.91 233.6,-676.6 241.65,-664.47 248.27,-649.07 252.3,-638.58"/>
<polygon fill="black" stroke="black" points="255.65,-639.62 255.79,-629.03 249.07,-637.22 255.65,-639.62"/>
<text text-anchor="middle" x="284.1" y="-665.4" font-family="Times,serif" font-size="14.00">trimmed_ch</text>
</g>
<!-- v2 -->
<g id="node4" class="node">
<title>v2</title>
<ellipse fill="black" stroke="black" cx="239.6" cy="-843.2" rx="3.6" ry="3.6"/>
<text text-anchor="middle" x="171" y="-828.4" font-family="Times,serif" font-size="14.00">Channel.fromPath</text>
</g>
<!-- v3 -->
<g id="node5" class="node">
<title>v3</title>
<ellipse fill="none" stroke="black" cx="239.6" cy="-785.1" rx="3.5" ry="3.5"/>
<text text-anchor="middle" x="212.6" y="-792.4" font-family="Times,serif" font-size="14.00">collect</text>
</g>
<!-- v2&#45;&gt;v3 -->
<g id="edge3" class="edge">
<title>v2&#45;&gt;v3</title>
<path fill="none" stroke="black" d="M239.6,-839.49C239.6,-832.26 239.6,-812.13 239.6,-798.76"/>
<polygon fill="black" stroke="black" points="243.1,-798.65 239.6,-788.65 236.1,-798.65 243.1,-798.65"/>
<text text-anchor="middle" x="279.1" y="-810.4" font-family="Times,serif" font-size="14.00">adapter_ch</text>
</g>
<!-- v3&#45;&gt;v4 -->
<g id="edge4" class="edge">
<title>v3&#45;&gt;v4</title>
<path fill="none" stroke="black" d="M238.78,-781.43C236.86,-775.39 231.82,-760.3 225.6,-748.6 223.92,-745.45 222.02,-742.23 220.04,-739.09"/>
<polygon fill="black" stroke="black" points="222.82,-736.95 214.37,-730.56 216.99,-740.83 222.82,-736.95"/>
</g>
<!-- v7 -->
<g id="node7" class="node">
<title>v7</title>
<ellipse fill="none" stroke="black" cx="135.6" cy="-553.1" rx="3.5" ry="3.5"/>
<text text-anchor="middle" x="108.6" y="-560.4" font-family="Times,serif" font-size="14.00">collect</text>
</g>
<!-- v5&#45;&gt;v7 -->
<g id="edge6" class="edge">
<title>v5&#45;&gt;v7</title>
<path fill="none" stroke="black" d="M144.7,-607.53C142.56,-594.98 139.7,-578.19 137.76,-566.8"/>
<polygon fill="black" stroke="black" points="141.18,-566.03 136.05,-556.76 134.28,-567.21 141.18,-566.03"/>
</g>
<!-- v6 -->
<g id="node8" class="node">
<title>v6</title>
<ellipse fill="black" stroke="black" cx="160.6" cy="-553.1" rx="1.8" ry="1.8"/>
</g>
<!-- v5&#45;&gt;v6 -->
<g id="edge7" class="edge">
<title>v5&#45;&gt;v6</title>
<path fill="none" stroke="black" d="M150.75,-607.53C153.2,-594.24 156.53,-576.19 158.62,-564.85"/>
<polygon fill="black" stroke="black" points="162.08,-565.39 160.45,-554.92 155.19,-564.12 162.08,-565.39"/>
</g>
<!-- v8 -->
<g id="node9" class="node">
<title>v8</title>
<ellipse fill="none" stroke="black" cx="135.6" cy="-480.6" rx="56.59" ry="18"/>
<text text-anchor="middle" x="135.6" y="-476.9" font-family="Times,serif" font-size="14.00">MULTIQC</text>
</g>
<!-- v7&#45;&gt;v8 -->
<g id="edge8" class="edge">
<title>v7&#45;&gt;v8</title>
<path fill="none" stroke="black" d="M135.6,-549.42C135.6,-542.76 135.6,-524.84 135.6,-509.09"/>
<polygon fill="black" stroke="black" points="139.1,-508.7 135.6,-498.7 132.1,-508.7 139.1,-508.7"/>
<text text-anchor="middle" x="158.1" y="-520.4" font-family="Times,serif" font-size="14.00">zip_ch</text>
</g>
<!-- v10 -->
<g id="node10" class="node">
<title>v10</title>
<ellipse fill="black" stroke="black" cx="123.6" cy="-393.6" rx="1.8" ry="1.8"/>
</g>
<!-- v8&#45;&gt;v10 -->
<g id="edge9" class="edge">
<title>v8&#45;&gt;v10</title>
<path fill="none" stroke="black" d="M133.17,-462.4C130.79,-445.52 127.22,-420.26 125.18,-405.82"/>
<polygon fill="black" stroke="black" points="128.62,-405.09 123.75,-395.68 121.69,-406.07 128.62,-405.09"/>
</g>
<!-- v9 -->
<g id="node11" class="node">
<title>v9</title>
<ellipse fill="black" stroke="black" cx="148.6" cy="-393.6" rx="1.8" ry="1.8"/>
</g>
<!-- v8&#45;&gt;v9 -->
<g id="edge10" class="edge">
<title>v8&#45;&gt;v9</title>
<path fill="none" stroke="black" d="M138.23,-462.4C140.81,-445.52 144.68,-420.26 146.88,-405.82"/>
<polygon fill="black" stroke="black" points="150.38,-406.1 148.43,-395.68 143.46,-405.04 150.38,-406.1"/>
</g>
<!-- v11 -->
<g id="node12" class="node">
<title>v11</title>
<ellipse fill="black" stroke="black" cx="424.6" cy="-712.6" rx="3.6" ry="3.6"/>
<text text-anchor="middle" x="356" y="-720" font-family="Times,serif" font-size="14.00">Channel.fromPath</text>
</g>
<!-- v12 -->
<g id="node13" class="node">
<title>v12</title>
<ellipse fill="none" stroke="black" cx="363.6" cy="-625.6" rx="71.49" ry="18"/>
<text text-anchor="middle" x="363.6" y="-621.9" font-family="Times,serif" font-size="14.00">STAR_INDEX</text>
</g>
<!-- v11&#45;&gt;v12 -->
<g id="edge11" class="edge">
<title>v11&#45;&gt;v12</title>
<path fill="none" stroke="black" d="M421.34,-710.88C410.82,-708.36 377.68,-698.85 364.6,-676.6 360.67,-669.91 359.36,-661.8 359.32,-654.07"/>
<polygon fill="black" stroke="black" points="362.82,-654.13 359.93,-643.94 355.84,-653.71 362.82,-654.13"/>
<text text-anchor="middle" x="418.1" y="-665.4" font-family="Times,serif" font-size="14.00">ref_genome_ch</text>
</g>
<!-- v19 -->
<g id="node20" class="node">
<title>v19</title>
<ellipse fill="none" stroke="black" cx="483.6" cy="-320.6" rx="3.5" ry="3.5"/>
<text text-anchor="middle" x="510.6" y="-327.9" font-family="Times,serif" font-size="14.00">combine</text>
</g>
<!-- v11&#45;&gt;v19 -->
<g id="edge19" class="edge">
<title>v11&#45;&gt;v19</title>
<path fill="none" stroke="black" d="M427.67,-710.21C436.08,-706.25 459.62,-694.04 471.6,-676.6 484.67,-657.58 485.6,-649.68 485.6,-626.6 485.6,-626.6 485.6,-626.6 485.6,-392.6 485.6,-372.21 484.77,-348.53 484.17,-334.33"/>
<polygon fill="black" stroke="black" points="487.67,-334.14 483.73,-324.31 480.68,-334.45 487.67,-334.14"/>
<text text-anchor="middle" x="539.1" y="-520.4" font-family="Times,serif" font-size="14.00">ref_genome_ch</text>
</g>
<!-- v14 -->
<g id="node14" class="node">
<title>v14</title>
<ellipse fill="none" stroke="black" cx="355.6" cy="-553.1" rx="3.5" ry="3.5"/>
<text text-anchor="middle" x="321.6" y="-560.4" font-family="Times,serif" font-size="14.00">combine</text>
</g>
<!-- v12&#45;&gt;v14 -->
<g id="edge12" class="edge">
<title>v12&#45;&gt;v14</title>
<path fill="none" stroke="black" d="M361.66,-607.53C360.24,-594.98 358.33,-578.19 357.04,-566.8"/>
<polygon fill="black" stroke="black" points="360.51,-566.3 355.9,-556.76 353.55,-567.09 360.51,-566.3"/>
</g>
<!-- v15 -->
<g id="node16" class="node">
<title>v15</title>
<ellipse fill="none" stroke="black" cx="355.6" cy="-480.6" rx="3.5" ry="3.5"/>
<text text-anchor="middle" x="336.6" y="-487.9" font-family="Times,serif" font-size="14.00">map</text>
</g>
<!-- v14&#45;&gt;v15 -->
<g id="edge15" class="edge">
<title>v14&#45;&gt;v15</title>
<path fill="none" stroke="black" d="M355.6,-549.42C355.6,-540.52 355.6,-511.54 355.6,-494.47"/>
<polygon fill="black" stroke="black" points="359.1,-494.28 355.6,-484.28 352.1,-494.28 359.1,-494.28"/>
</g>
<!-- v13&#45;&gt;v14 -->
<g id="edge14" class="edge">
<title>v13&#45;&gt;v14</title>
<path fill="none" stroke="black" d="M255.9,-621.9C253.94,-613.64 249.3,-588.41 261.6,-574.6 272.15,-562.76 318.76,-557.21 342.14,-555.13"/>
<polygon fill="black" stroke="black" points="342.46,-558.61 352.14,-554.33 341.9,-551.64 342.46,-558.61"/>
<text text-anchor="middle" x="307.6" y="-578.4" font-family="Times,serif" font-size="14.00">trimmed_flat</text>
</g>
<!-- v16 -->
<g id="node17" class="node">
<title>v16</title>
<ellipse fill="none" stroke="black" cx="357.6" cy="-393.6" rx="70.69" ry="18"/>
<text text-anchor="middle" x="357.6" y="-389.9" font-family="Times,serif" font-size="14.00">STAR_ALIGN</text>
</g>
<!-- v15&#45;&gt;v16 -->
<g id="edge16" class="edge">
<title>v15&#45;&gt;v16</title>
<path fill="none" stroke="black" d="M355.65,-476.89C355.78,-469.38 356.16,-447.65 356.6,-429.6 356.66,-427.05 356.73,-424.39 356.8,-421.73"/>
<polygon fill="black" stroke="black" points="360.3,-421.78 357.08,-411.69 353.3,-421.59 360.3,-421.78"/>
<text text-anchor="middle" x="414.1" y="-433.4" font-family="Times,serif" font-size="14.00">star_align_input</text>
</g>
<!-- v17 -->
<g id="node18" class="node">
<title>v17</title>
<ellipse fill="none" stroke="black" cx="357.6" cy="-320.6" rx="101.28" ry="18"/>
<text text-anchor="middle" x="357.6" y="-316.9" font-family="Times,serif" font-size="14.00">SAMTOOLS_INDEX</text>
</g>
<!-- v16&#45;&gt;v17 -->
<g id="edge17" class="edge">
<title>v16&#45;&gt;v17</title>
<path fill="none" stroke="black" d="M357.6,-375.41C357.6,-367.39 357.6,-357.65 357.6,-348.67"/>
<polygon fill="black" stroke="black" points="361.1,-348.63 357.6,-338.63 354.1,-348.63 361.1,-348.63"/>
</g>
<!-- v16&#45;&gt;v19 -->
<g id="edge20" class="edge">
<title>v16&#45;&gt;v19</title>
<path fill="none" stroke="black" d="M394.89,-378.28C417.12,-368.8 445.27,-355.09 467.6,-338.6 470.32,-336.59 472.96,-334.09 475.29,-331.63"/>
<polygon fill="black" stroke="black" points="478.12,-333.71 481.94,-323.83 472.79,-329.17 478.12,-333.71"/>
</g>
<!-- v18 -->
<g id="node19" class="node">
<title>v18</title>
<ellipse fill="black" stroke="black" cx="357.6" cy="-233.6" rx="1.8" ry="1.8"/>
</g>
<!-- v17&#45;&gt;v18 -->
<g id="edge18" class="edge">
<title>v17&#45;&gt;v18</title>
<path fill="none" stroke="black" d="M357.6,-302.4C357.6,-285.52 357.6,-260.26 357.6,-245.82"/>
<polygon fill="black" stroke="black" points="361.1,-245.68 357.6,-235.68 354.1,-245.68 361.1,-245.68"/>
</g>
<!-- v20 -->
<g id="node21" class="node">
<title>v20</title>
<ellipse fill="none" stroke="black" cx="483.6" cy="-233.6" rx="100.98" ry="18"/>
<text text-anchor="middle" x="483.6" y="-229.9" font-family="Times,serif" font-size="14.00">VARIANT_CALLING</text>
</g>
<!-- v19&#45;&gt;v20 -->
<g id="edge21" class="edge">
<title>v19&#45;&gt;v20</title>
<path fill="none" stroke="black" d="M483.6,-316.77C483.6,-308.28 483.6,-282.35 483.6,-261.87"/>
<polygon fill="black" stroke="black" points="487.1,-261.77 483.6,-251.77 480.1,-261.77 487.1,-261.77"/>
<text text-anchor="middle" x="531.6" y="-273.4" font-family="Times,serif" font-size="14.00">variant_input</text>
</g>
<!-- v21 -->
<g id="node22" class="node">
<title>v21</title>
<ellipse fill="black" stroke="black" cx="470.6" cy="-175.1" rx="1.8" ry="1.8"/>
</g>
<!-- v20&#45;&gt;v21 -->
<g id="edge22" class="edge">
<title>v20&#45;&gt;v21</title>
<path fill="none" stroke="black" d="M479.63,-215.34C477.51,-206.14 474.97,-195.1 473.12,-187.07"/>
<polygon fill="black" stroke="black" points="476.48,-186.07 470.83,-177.1 469.66,-187.63 476.48,-186.07"/>
</g>
<!-- v22 -->
<g id="node23" class="node">
<title>v22</title>
<ellipse fill="none" stroke="black" cx="495.6" cy="-175.1" rx="3.5" ry="3.5"/>
<text text-anchor="middle" x="476.6" y="-182.4" font-family="Times,serif" font-size="14.00">map</text>
</g>
<!-- v20&#45;&gt;v22 -->
<g id="edge23" class="edge">
<title>v20&#45;&gt;v22</title>
<path fill="none" stroke="black" d="M487.27,-215.34C489.09,-206.76 491.25,-196.57 492.92,-188.72"/>
<polygon fill="black" stroke="black" points="496.4,-189.17 495.06,-178.66 489.55,-187.72 496.4,-189.17"/>
</g>
<!-- v23 -->
<g id="node24" class="node">
<title>v23</title>
<ellipse fill="none" stroke="black" cx="495.6" cy="-131.1" rx="3.5" ry="3.5"/>
<text text-anchor="middle" x="468.6" y="-138.4" font-family="Times,serif" font-size="14.00">collect</text>
</g>
<!-- v22&#45;&gt;v23 -->
<g id="edge24" class="edge">
<title>v22&#45;&gt;v23</title>
<path fill="none" stroke="black" d="M495.6,-171.34C495.6,-166.07 495.6,-154.23 495.6,-144.92"/>
<polygon fill="black" stroke="black" points="499.1,-144.92 495.6,-134.92 492.1,-144.92 499.1,-144.92"/>
</g>
<!-- v24 -->
<g id="node25" class="node">
<title>v24</title>
<ellipse fill="none" stroke="black" cx="495.6" cy="-58.6" rx="71.49" ry="18"/>
<text text-anchor="middle" x="495.6" y="-54.9" font-family="Times,serif" font-size="14.00">MERGE_VCF</text>
</g>
<!-- v23&#45;&gt;v24 -->
<g id="edge25" class="edge">
<title>v23&#45;&gt;v24</title>
<path fill="none" stroke="black" d="M495.6,-127.42C495.6,-120.76 495.6,-102.84 495.6,-87.09"/>
<polygon fill="black" stroke="black" points="499.1,-86.7 495.6,-76.7 492.1,-86.7 499.1,-86.7"/>
<text text-anchor="middle" x="553.6" y="-98.4" font-family="Times,serif" font-size="14.00">filtered_vcf_files</text>
</g>
<!-- v25 -->
<g id="node26" class="node">
<title>v25</title>
<ellipse fill="black" stroke="black" cx="495.6" cy="-1.8" rx="1.8" ry="1.8"/>
</g>
<!-- v24&#45;&gt;v25 -->
<g id="edge26" class="edge">
<title>v24&#45;&gt;v25</title>
<path fill="none" stroke="black" d="M495.6,-40.56C495.6,-31.87 495.6,-21.56 495.6,-13.9"/>
<polygon fill="black" stroke="black" points="499.1,-13.76 495.6,-3.76 492.1,-13.76 499.1,-13.76"/>
</g>
</g>
</svg>
